<svg height="472pt" viewBox="0 0 471 472" width="472pt" xmlns="http://www.w3.org/2000/svg"><path d="m400.5 360v-48c0-8.835938-7.164062-16-16-16h-208c-8.835938 0-16 7.164062-16 16v144c0 8.835938 7.164062 16 16 16h208c8.835938 0 16-7.164062 16-16v-48l25.191406 6.296875c9.332032 2.34375 19.222656.253906 26.808594-5.664063 7.582031-5.921874 12.011719-15.011718 12-24.632812.011719-9.621094-4.417969-18.710938-12-24.632812-7.585938-5.917969-17.476562-8.007813-26.808594-5.664063zm0 0" fill="#995023"/><path d="m424.5 376h16v16h-16zm0 0" fill="#6b3617"/><path d="m136.5 96c0 22.089844-17.910156 40-40 40s-40-17.910156-40-40 17.910156-40 40-40 40 17.910156 40 40zm0 0" fill="#dd4a43"/><path d="m88.5 16h16v40h-16zm0 0" fill="#7ea633"/><path d="m96.5 64c-1.730469 0-3.414062-.5625-4.800781-1.601562l-32-24 9.601562-12.796876 27.199219 20.398438 27.199219-20.398438 9.601562 12.796876-32 24c-1.386719 1.039062-3.070312 1.601562-4.800781 1.601562zm0 0" fill="#7ea633"/><g fill="#6e912d"><path d="m424.746094 81.753906-13.246094-9.25 32.335938-45.113281 13.046874 9.265625zm0 0"/><path d="m411.53125 74.832031-15.535156-3.832031 12.238281-48.910156 15.539063 3.820312zm0 0"/><path d="m423.933594 77.617188 39.839844-21.597657 7.625 14.066407-39.839844 21.597656zm0 0"/><path d="m336.5 0h16v56h-16zm0 0"/><path d="m322.746094 63-18.359375-46.734375 14.890625-5.867187 17.335937 44zm0 0"/><path d="m349.320312 52.464844 20-40.667969 14.359376 7.0625-20.003907 40.667969zm0 0"/></g><path d="m288.5 108c.007812-4.894531-1.785156-9.617188-5.039062-13.273438-3.410157-3.691406-3.515626-9.355468-.25-13.175781 3.894531-4.214843 5.785156-9.90625 5.183593-15.613281-1.449219-10.449219-10.492187-18.160156-21.039062-17.9375h-.390625c-3.109375.058594-6.09375-1.242188-8.167969-3.558594-2.070313-2.320312-3.03125-5.429687-2.625-8.511718 1.492187-8.929688-2.167969-17.9375-9.464844-23.296876-7.292969-5.359374-16.984375-6.160156-25.058593-2.066406-8.074219 4.09375-13.160157 12.382813-13.148438 21.433594 0 1.015625.0625 2.027344.191406 3.03125.554688 3.179688-.308594 6.445312-2.359375 8.9375-2.054687 2.492188-5.09375 3.964844-8.320312 4.03125h-.367188c-10.546875-.222656-19.589843 7.488281-21.039062 17.9375-.601563 5.707031 1.289062 11.398438 5.183593 15.613281 3.265626 3.820313 3.160157 9.484375-.25 13.175781-6.714843 7.574219-6.714843 18.972657 0 26.546876 3.410157 3.691406 3.515626 9.355468.25 13.175781-3.894531 4.214843-5.785156 9.90625-5.183593 15.613281 1.449219 10.449219 10.492187 18.160156 21.039062 17.9375h69.710938c10.546875.222656 19.589843-7.488281 21.039062-17.9375.601563-5.707031-1.289062-11.398438-5.183593-15.613281-3.265626-3.820313-3.160157-9.484375.25-13.175781 3.253906-3.65625 5.046874-8.378907 5.039062-13.273438zm0 0" fill="#7ea633"/><path d="m250.84375 114.34375-10.34375 10.34375v-17.375l21.65625-21.65625-11.3125-11.3125-10.34375 10.34375v-28.6875h-16v28.6875l-10.34375-10.34375-11.3125 11.3125 21.65625 21.65625v17.375l-10.34375-10.34375-11.3125 11.3125 21.65625 21.65625v60.6875h16v-60.6875l21.65625-21.65625zm0 0" fill="#6e912d"/><path d="m344.5 264c-6.777344 0-12.40625-5.238281-12.886719-12l-13.042969-176.078125c-.535156-7.210937 1.957032-14.320313 6.875-19.617187 4.921876-5.296876 11.824219-8.308594 19.054688-8.304688 7.230469-.003906 14.132812 3.007812 19.054688 8.304688 4.917968 5.296874 7.410156 12.40625 6.875 19.617187l-13.042969 176.078125c-.480469 6.761719-6.109375 12-12.886719 12zm0 0" fill="#fd6f0a"/><path d="m297.613281 247.351562c-5.515625-3.917968-7.078125-11.421874-3.585937-17.214843l91.273437-151.191407c3.738281-6.1875 9.882813-10.542968 16.957031-12.015624 7.078126-1.472657 14.449219.066406 20.347657 4.246093 5.894531 4.183594 9.785156 10.632813 10.730469 17.800781.949218 7.167969-1.132813 14.40625-5.738282 19.976563l-112.546875 136.09375c-4.316406 5.210937-11.917969 6.214844-17.4375 2.304687zm0 0" fill="#fd882f"/><path d="m160.5 200h304v64h-304zm0 0" fill="#995023"/><path d="m160.5 136h304v64h-304zm0 0" fill="#995023"/><path d="m184.5 224h16v16h-16zm0 0" fill="#7a3e1a"/><path d="m424.5 224h16v16h-16zm0 0" fill="#7a3e1a"/><path d="m184.5 160h16v16h-16zm0 0" fill="#7a3e1a"/><path d="m424.5 160h16v16h-16zm0 0" fill="#7a3e1a"/><path d="m392.5 104h-22.335938l-9.664062 16h32zm0 0" fill="#fd6f0a"/><path d="m348.5 80h-29.632812l1.183593 16h28.449219zm0 0" fill="#f05b11"/><path d="m160.5 192h304v16h-304zm0 0" fill="#7a3e1a"/><path d="m96.5 216v-16h-64v16l-26.480469 59.59375c-3.640625 8.183594-5.523437 17.046875-5.519531 26.007812v146.398438c0 13.253906 10.746094 24 24 24h80c13.253906 0 24-10.746094 24-24v-146.398438c0-8.957031-1.878906-17.8125-5.519531-25.992187zm0 0" fill="#87ced9"/><path d="m32.5 168h64c4.417969 0 8 3.582031 8 8v24h-80v-24c0-4.417969 3.582031-8 8-8zm0 0" fill="#e3e3e1"/><path d="m108.035156 260.097656c-13.554687 2.441406-27.515625 1.375-40.542968-3.097656-17.675782-5.671875-36.773438-5.027344-54.023438 1.824219l-7.457031 16.800781c-3.632813 8.175781-5.511719 17.027344-5.511719 25.976562v146.398438c0 13.253906 10.746094 24 24 24h80c13.253906 0 24-10.746094 24-24v-146.398438c0-8.957031-1.875-17.8125-5.511719-25.992187l-7.550781-16.976563zm0 0" fill="#e3e3e1"/><path d="m24.5 296h16v16h-16zm0 0" fill="#f4f4f4"/><path d="m24.5 328h16v80h-16zm0 0" fill="#f4f4f4"/><path d="m64.5 200v16l18.9375 42.617188.910156 2.046874c7.875 1.089844 15.875.898438 23.6875-.566406l7.402344-1.480468-18.9375-42.617188v-16zm0 0" fill="#80c4d1"/><path d="m72.5 176v24h32v-24c0-4.417969-3.582031-8-8-8h-32c4.417969 0 8 3.582031 8 8zm0 0" fill="#dbdbd9"/><path d="m127.109375 288.296875c-.929687-4.367187-2.3125-8.625-4.128906-12.703125l-7.542969-16.976562-7.402344 1.480468c-7.8125 1.464844-15.8125 1.65625-23.6875.566406l6.632813 14.929688c1.816406 4.078125 3.199219 8.335938 4.128906 12.703125.925781 4.375 1.390625 8.832031 1.390625 13.304687v146.398438c0 13.253906-10.746094 24-24 24h32c13.253906 0 24-10.746094 24-24v-146.398438c0-4.472656-.464844-8.929687-1.390625-13.304687zm0 0" fill="#dbdbd9"/><path d="m368.5 296h-16v128h-144v16h176v-105.375c-.28125-14.429688-5.996094-28.222656-16-38.625zm0 0" fill="#8f4b21"/><path d="m320.5 232-128 96h176v-6.3125c0-36.039062-18.011719-69.695312-48-89.6875zm0 0" fill="#fdce74"/><path d="m192.5 328v32c8.835938 0 16 7.164062 16 16s-7.164062 16-16 16v32h176v-96zm0 0" fill="#faa400"/><path d="m192.5 424h176v-84.449219c-51.527344 40.304688-125.457031 60-176 69.144531zm0 0" fill="#fa9e00"/><path d="m280.5 376c0 8.835938-7.164062 16-16 16s-16-7.164062-16-16 7.164062-16 16-16 16 7.164062 16 16zm0 0" fill="#f0900a"/><path d="m304.5 352h16v16h-16zm0 0" fill="#f0900a"/><path d="m328.5 384h16v16h-16zm0 0" fill="#f0900a"/></svg>